<svg xmlns="http://www.w3.org/2000/svg" width="71.8" height="52.061" viewBox="0 0 71.8 52.061">
    <g data-name="Group 3507">
        <path data-name="Path 6048" d="M340.38 209.289v11.7a3.7 3.7 0 0 0 3.67 3.67 3.773 3.773 0 0 0 3.67-3.67v-11.7a3.67 3.67 0 0 0-7.339 0zm4.587 0v11.7a.8.8 0 1 1-1.605 0v-11.7a.8.8 0 1 1 1.605 0z" transform="translate(-305.633 -189.337)" style="fill:#124094"/>
        <path data-name="Path 6049" d="M268.62 139.289v20.87a3.67 3.67 0 0 0 7.339 0v-20.87a3.67 3.67 0 0 0-7.339 0zm4.587 0v20.87a.8.8 0 0 1-1.605 0v-20.87a.8.8 0 0 1 1.605 0z" transform="translate(-243.278 -128.511)" style="fill:#124094"/>
        <path data-name="Path 6050" d="M196.88 235.549v8.256a3.7 3.7 0 0 0 3.67 3.67 3.773 3.773 0 0 0 3.67-3.67v-8.256a3.67 3.67 0 0 0-7.339 0zm4.587 0v8.256a.784.784 0 0 1-.8.8.886.886 0 0 1-.917-.8v-8.256a.784.784 0 0 1 .8-.8.886.886 0 0 1 .917.8z" transform="translate(-180.939 -212.157)" style="fill:#124094"/>
        <path data-name="Path 6051" d="M123 405.372h21.674a4.025 4.025 0 0 0 3.784 2.523h6.192a4.025 4.025 0 0 0 3.784-2.523l21.674.115a1.593 1.593 0 0 0 1.491-1.376 1.5 1.5 0 0 0-1.376-1.491l-24.081-.115-.225 1.495a1.248 1.248 0 0 1-1.261 1.032h-6.192a1.335 1.335 0 0 1-1.261-1.147l-.115-1.376h-24.082A1.422 1.422 0 0 0 121.63 404a1.325 1.325 0 0 0 1.376 1.376z" transform="translate(-115.551 -360.421)" style="fill:#00aeef"/>
        <path data-name="Path 6052" d="M136.13 121.629a1.518 1.518 0 0 0 1.491-1.491V88.146a3.867 3.867 0 0 1 3.9-3.9h42.888a3.867 3.867 0 0 1 3.9 3.9v31.993a1.491 1.491 0 0 0 2.981 0V88.146a6.778 6.778 0 0 0-6.766-6.766h-43a6.778 6.778 0 0 0-6.766 6.766v31.993a1.357 1.357 0 0 0 1.376 1.491z" transform="translate(-126.956 -81.38)" style="fill:#00aeef"/>
        <path data-name="Path 6053" d="M145.779 402.5a1.518 1.518 0 0 0-1.491 1.491v1.147a4.478 4.478 0 0 1-4.472 4.472H82.709a4.478 4.478 0 0 1-4.472-4.472v-1.147a1.491 1.491 0 0 0-2.981 0v1.147a7.39 7.39 0 0 0 7.339 7.339H139.7a7.39 7.39 0 0 0 7.339-7.339v-1.147a1.225 1.225 0 0 0-1.26-1.491z" transform="translate(-75.255 -360.415)" style="fill:#00aeef"/>
        <path data-name="Path 6054" d="M1.8-18.091h10.349v.025a16.877 16.877 0 0 1-1.041 1.714H8.354a4.364 4.364 0 0 1 .774 1.841h2.945q.051.013.051.051-.99 1.676-1.016 1.688H9.2a5.508 5.508 0 0 1-.724 2.082 4.848 4.848 0 0 1-1.7 1.6 6.025 6.025 0 0 1-2.869.813v.025a4.734 4.734 0 0 0 .673 1l5.1 7v.33a.045.045 0 0 1-.051.051h-2.24Q1.32-7.884 1.32-7.922v-1.625l.025-.063a7.748 7.748 0 0 0 1.255.089q3.39 0 4.228-2.5a2.283 2.283 0 0 0 .127-.749H.813q-.051 0-.051-.063 1.015-1.678 1.038-1.678h4.89v-.025a3.024 3.024 0 0 0-1.625-1.5 4.55 4.55 0 0 0-1.549-.317H.787v-.063q.99-1.675 1.013-1.675z" transform="translate(44.886 34.372)" style="fill:#124094"/>
    </g>
</svg>
