<svg data-name="Component 125 – 220" xmlns="http://www.w3.org/2000/svg" width="24" height="24" viewBox="0 0 24 24">
    <g data-name="Group 1828">
        <g data-name="Group 1825">
            <path data-name="Path 1068" d="M29.639 27.944a4.089 4.089 0 1 1 4.088-4.09 4.094 4.094 0 0 1-4.088 4.09zm0-7.495a3.405 3.405 0 1 0 3.4 3.4 3.408 3.408 0 0 0-3.4-3.4z" transform="translate(-17.708 -12.767)" style="fill:#6c7380;stroke:#6c7380;stroke-width:.3px"/>
        </g>
        <g data-name="Group 1826">
            <path data-name="Path 1069" d="M34.3 30.576h-.683a2.746 2.746 0 0 1 2.743-2.743v.683a2.062 2.062 0 0 0-2.06 2.06z" transform="translate(-24.426 -19.489)" style="fill:#6c7380;stroke:#6c7380;stroke-width:.3px"/>
        </g>
        <g data-name="Group 1827">
            <path data-name="Path 1070" d="M10.7 29.848c-4.383 0-7.9-4.64-8.044-4.837l-.152-.2.152-.2c.148-.2 3.66-4.837 8.044-4.837 4.4 0 7.4 4.66 7.529 4.859l.116.183-.116.183c-.129.189-3.129 4.849-7.529 4.849zm-7.338-5.042c.726.887 3.793 4.357 7.333 4.357s6.231-3.508 6.827-4.357c-.6-.85-3.275-4.358-6.827-4.358s-6.607 3.47-7.333 4.358z" transform="translate(1.5 -12.766)" style="fill:#6c7380;stroke:#6c7380;stroke-width:.3px"/>
        </g>
    </g>
</svg>
