<svg data-name="Component 125 – 221" xmlns="http://www.w3.org/2000/svg" width="24" height="24" viewBox="0 0 24 24">
    <g data-name="Group 1824">
        <path data-name="Rectangle 941" transform="translate(5 19.284)" style="fill:#6c7380;stroke:#6c7380;stroke-width:.3px" d="M0 0h13.587v.849H0z"/>
        <path data-name="Path 1066" d="m16.291 2.4-.9-.9a1.913 1.913 0 0 0-2.7 0L4.582 9.6a.424.424 0 0 0-.108.184l-1.2 4.2a.426.426 0 0 0 .525.526l4.2-1.2a.42.42 0 0 0 .184-.108L16.291 5.1a1.909 1.909 0 0 0 0-2.7zM7.663 12.528l-3.363.96.96-3.363L11.787 3.6 14.19 6zM15.691 4.5l-.9.9L12.388 3l.9-.9a1.064 1.064 0 0 1 1.5 0l.9.9a1.063 1.063 0 0 1 0 1.5z" transform="translate(2.585 3.061)" style="fill:#6c7380;stroke:#6c7380;stroke-width:.3px"/>
    </g>
</svg>
