<svg xmlns="http://www.w3.org/2000/svg" width="8.605" height="13.201" viewBox="0 0 8.605 13.201">
    <path data-name="Path 6183" d="M21821.3 4786.206v-5.7l-1.117 1.074a1.011 1.011 0 0 1-.723.3.965.965 0 0 1-.719-.307l-.01-.005a1.083 1.083 0 0 1 .037-1.4l.033-.033 2.811-2.673a1.06 1.06 0 0 1 .656-.273h.027a.983.983 0 0 1 .691.273l2.826 2.69a1.08 1.08 0 0 1 .043 1.418.939.939 0 0 1-.711.3 1.045 1.045 0 0 1-.729-.285l-1.123-1.074v5.7a1 1 0 1 1-1.994 0zm-2.307-10.205a1 1 0 0 1 0-2h6.611a1 1 0 0 1 0 2z" transform="translate(-21817.998 -4774.002)" style="fill:#fff"/>
</svg>
