<svg xmlns="http://www.w3.org/2000/svg" width="15.356" height="14.225" viewBox="0 0 15.356 14.225">
    <path data-name="Path 6141" d="M175.413 107.531h-1.244v-.792a.339.339 0 0 0-.679 0v.792h-7.013v-.792a.339.339 0 1 0-.678 0v.792h-1.244a2.163 2.163 0 0 0-2.149 2.149v8.6a2.163 2.163 0 0 0 2.149 2.149h10.858a2.163 2.163 0 0 0 2.149-2.149v-8.6a2.148 2.148 0 0 0-2.149-2.149zm-10.858.679h1.245v1.7a.339.339 0 0 0 .679 0v-1.7h7.013v1.7a.339.339 0 0 0 .679 0v-1.7h1.244a1.467 1.467 0 0 1 1.47 1.47v2.353h-13.8v-2.353a1.468 1.468 0 0 1 1.47-1.47zm10.858 11.537h-10.859a1.467 1.467 0 0 1-1.47-1.47v-5.565h13.8v5.565a1.468 1.468 0 0 1-1.47 1.47z" transform="translate(-162.305 -106.3)" style="fill:#6c7380;stroke:#6c7380;stroke-width:.2px"/>
</svg>
