<svg xmlns="http://www.w3.org/2000/svg" width="15.102" height="13.122" viewBox="0 0 15.102 13.122">
    <path data-name="Union 97" d="M22970.572-12799.068a.614.614 0 0 1 0-.889l1.35-1.354h-6.342a.633.633 0 0 1-.635-.635.633.633 0 0 1 .635-.634h6.359l-1.35-1.35a.619.619 0 0 1 0-.894.615.615 0 0 1 .889 0l2.432 2.416a.619.619 0 0 1 0 .894l-2.449 2.445a.622.622 0 0 1-.445.189.621.621 0 0 1-.444-.188zm-9.156-.462a2.415 2.415 0 0 1-2.416-2.416 2.419 2.419 0 0 1 2.416-2.415 2.43 2.43 0 0 1 2.434 2.415 2.414 2.414 0 0 1-2.4 2.416zm-1.141-2.4a1.137 1.137 0 0 0 1.141 1.142 1.137 1.137 0 0 0 1.143-1.142 1.143 1.143 0 0 0-1.143-1.147 1.142 1.142 0 0 0-1.141 1.148zm1.35-4.134-2.434-2.444a.62.62 0 0 1 0-.895l2.434-2.415a.626.626 0 0 1 .887 0 .619.619 0 0 1 0 .894l-1.35 1.349h6.344a.639.639 0 0 1 .633.635.635.635 0 0 1-.633.634h-6.344l1.35 1.355a.612.612 0 0 1 0 .888.629.629 0 0 1-.443.19.619.619 0 0 1-.444-.189zm7.627-2.877a2.419 2.419 0 0 1 2.434-2.416 2.419 2.419 0 0 1 2.416 2.416 2.416 2.416 0 0 1-2.416 2.416 2.427 2.427 0 0 1-2.434-2.414zm1.285-.012a1.139 1.139 0 0 0 1.148 1.142 1.136 1.136 0 0 0 1.141-1.142 1.137 1.137 0 0 0-1.141-1.147 1.141 1.141 0 0 0-1.148 1.149z" transform="translate(-22959 12812.001)" style="fill:#6c7380"/>
</svg>
