<svg xmlns="http://www.w3.org/2000/svg" width="15.39" height="15.414" viewBox="0 0 15.39 15.414">
    <g data-name="Group 4245">
        <path d="M109.472 46.268v2.2a.551.551 0 0 1-.551.551h-2.2a.551.551 0 1 1 0-1.1h.716a7.714 7.714 0 0 1 8.265-12.3.551.551 0 0 1-.342 1.047 6.612 6.612 0 0 0-6.99 10.654v-1.052a.551.551 0 1 1 1.1 0zM119.225 38h.716a.551.551 0 1 0 0-1.1h-2.2a.551.551 0 0 0-.551.551v2.2a.551.551 0 1 0 1.1 0V38.6a6.612 6.612 0 0 1-6.99 10.655.551.551 0 0 0-.342 1.047A7.714 7.714 0 0 0 119.225 38z" transform="translate(-105.635 -35.256)" style="fill:#6c7380"/>
        <path data-name="Path 6308" d="M447.632 76.5a2.416 2.416 0 1 0-2.432-2.416 2.415 2.415 0 0 0 2.432 2.416zm0-3.576a1.144 1.144 0 1 1-1.144 1.144 1.14 1.14 0 0 1 1.144-1.14z" transform="translate(-439.93 -66.381)" style="fill:#6c7380"/>
    </g>
</svg>
