<svg xmlns="http://www.w3.org/2000/svg" width="67.695" height="60.226" viewBox="0 0 67.695 60.226">
    <g data-name="Group 3500">
        <path data-name="Path 6032" d="M188.8 81.78h-55.5a6.105 6.105 0 0 0-6.1 6.1v34.38a6.1 6.1 0 0 0 6.1 6.1h12.481v-2.552h-12.474a3.549 3.549 0 0 1-3.546-3.547v-34.38a3.55 3.55 0 0 1 3.546-3.548h55.5a3.551 3.551 0 0 1 3.548 3.548v34.381a3.551 3.551 0 0 1-3.546 3.547h-12.486v2.552H188.8a6.108 6.108 0 0 0 6.1-6.1v-34.38a6.11 6.11 0 0 0-6.1-6.1z" transform="translate(-127.209 -81.78)" style="fill:#00aeef"/>
        <path data-name="Path 6033" d="M161.056 87.216a17.855 17.855 0 1 0 17.854 17.856 17.875 17.875 0 0 0-17.854-17.856zm0 33.158a15.3 15.3 0 1 1 15.3-15.3 15.317 15.317 0 0 1-15.3 15.299zm-9.212 16.019h2.556v-10.587h-2.552zm15.864 0h2.552v-10.587h-2.552zm-7.929 5.613h2.552v-16.2h-2.552z" transform="translate(-127.209 -81.78)" style="fill:#124094"/>
        <path data-name="Path 6034" d="M1.8-18.091h10.349v.025a16.877 16.877 0 0 1-1.041 1.714H8.354a4.364 4.364 0 0 1 .774 1.841h2.945q.051.013.051.051-.99 1.676-1.016 1.688H9.2a5.508 5.508 0 0 1-.724 2.082 4.848 4.848 0 0 1-1.7 1.6 6.025 6.025 0 0 1-2.869.813v.025a4.734 4.734 0 0 0 .673 1l5.1 7v.33a.045.045 0 0 1-.051.051h-2.24Q1.32-7.884 1.32-7.922v-1.625l.025-.063a7.748 7.748 0 0 0 1.255.089q3.39 0 4.228-2.5a2.283 2.283 0 0 0 .127-.749H.813q-.051 0-.051-.063 1.015-1.678 1.038-1.678h4.89v-.025a3.024 3.024 0 0 0-1.625-1.5 4.55 4.55 0 0 0-1.549-.317H.787v-.063q.99-1.675 1.013-1.675z" transform="translate(28 33.499)" style="fill:#124094"/>
    </g>
</svg>
