<svg xmlns="http://www.w3.org/2000/svg" width="24" height="24" viewBox="0 0 24 24">
    <g data-name="Component 125 – 862" style="opacity:.1">
        <g data-name="Group 3640">
            <path data-name="Path 6168" d="M143.4 82.4a9 9 0 1 0-9-9 9.018 9.018 0 0 0 9 9zm0-16.831a7.831 7.831 0 1 1-7.83 7.831 7.831 7.831 0 0 1 7.83-7.831z" transform="translate(-131.398 -61.4)" style="fill:#6c7380"/>
            <path data-name="Union 84" d="M21822.148 8291a.5.5 0 0 1 .5.5v9a.5.5 0 0 1-1 0v-9a.5.5 0 0 1 .5-.5z" transform="rotate(90 15059.075 -6751.075)" style="fill:#6c7380"/>
        </g>
    </g>
</svg>
