<svg data-name="Component 125 – 3133" xmlns="http://www.w3.org/2000/svg" width="24" height="24" viewBox="0 0 24 24">
    <path data-name="Path 6271" d="M153.011 23.205v-.022h-.02l-.522-.589a.589.589 0 0 0-.44-.2h-7.461a1.767 1.767 0 0 0-1.767 1.767v14.534a1.767 1.767 0 0 0 1.767 1.767h11a1.767 1.767 0 0 0 1.767-1.767V28.289a.589.589 0 0 0-.149-.393zm0 1.767 2.069 2.335h-2.069zm3.142 13.723a.589.589 0 0 1-.589.589h-11a.589.589 0 0 1-.589-.589v-14.53a.589.589 0 0 1 .589-.589h7.2l.069.077v3.654a1.178 1.178 0 0 0 1.178 1.178h3.118l.025.028z" transform="translate(-138.066 -19.502)" style="fill:#124094"/>
    <path data-name="Path 6272" d="M223.653 263.2h-7.461a.589.589 0 0 0 0 1.178h7.461a.589.589 0 0 0 0-1.178z" transform="translate(-208.314 -251.861)" style="fill:#124094"/>
    <path data-name="Path 6273" d="M223.653 338.8h-7.461a.589.589 0 0 0 0 1.178h7.461a.589.589 0 1 0 0-1.178z" transform="translate(-208.314 -324.81)" style="fill:#124094"/>
    <path data-name="Path 6274" d="M223.653 414.4h-7.461a.589.589 0 0 0 0 1.178h7.461a.589.589 0 0 0 0-1.178z" transform="translate(-208.314 -397.759)" style="fill:#124094"/>
    <path data-name="Path 6275" d="M216.192 169.176h3.534a.589.589 0 1 0 0-1.178h-3.534a.589.589 0 0 0 0 1.178z" transform="translate(-208.314 -159.997)" style="fill:#124094"/>
</svg>
