<svg xmlns="http://www.w3.org/2000/svg" width="21.732" height="18.125" viewBox="0 0 21.732 18.125">
    <path data-name="Path 6132" d="M160.852 103.527v4.9a2.471 2.471 0 0 1-2.449 2.449h-16.834a2.471 2.471 0 0 1-2.449-2.449v-4.9a.668.668 0 0 1 1.336 0v4.9a1.1 1.1 0 0 0 1.113 1.113H158.4a1.1 1.1 0 0 0 1.113-1.113v-4.9a.685.685 0 0 1 .668-.668.656.656 0 0 1 .671.668zm-12.158 2.093a1.828 1.828 0 0 0 2.583 0l3.117-3.117a.661.661 0 0 0-.935-.935l-2.806 2.806V93.418a.668.668 0 1 0-1.336 0v10.911l-2.806-2.806a.661.661 0 0 0-.935.935z" transform="translate(-139.12 -92.75)" style="fill:#6c7380"/>
</svg>
