<svg xmlns="http://www.w3.org/2000/svg" width="24" height="24" viewBox="0 0 24 24">
    <g data-name="Group 3693">
        <g data-name="Component 125 – 792">
            <path data-name="Path 6184" d="M158.121 102.173v4.283a2.161 2.161 0 0 1-2.141 2.141h-14.718a2.161 2.161 0 0 1-2.142-2.141v-4.283a.584.584 0 0 1 1.168 0v4.283a.964.964 0 0 0 .973.973h14.718a.964.964 0 0 0 .973-.973v-4.283a.6.6 0 0 1 .584-.584.573.573 0 0 1 .585.584zM147.491 104a1.6 1.6 0 0 0 2.258 0l2.726-2.726a.578.578 0 1 0-.818-.818l-2.453 2.453v-9.575a.584.584 0 1 0-1.168 0v9.54l-2.453-2.453a.578.578 0 1 0-.818.818z" transform="translate(-136.12 -89.139)" style="fill:#6c7380"/>
        </g>
    </g>
</svg>
