<svg xmlns="http://www.w3.org/2000/svg" width="50" height="60.642" viewBox="0 0 50 60.642">
    <g data-name="Group 3499">
        <g data-name="Group 3498">
            <path d="M149.348 26.248a1.045 1.045 0 0 0-1.045 1.045v6.43h-6.478a1.046 1.046 0 0 0-1.046 1.046v51.075a1.046 1.046 0 0 0 1.046 1.046h40.389a1.046 1.046 0 0 0 1.046-1.046v-6.43h6.474a1.046 1.046 0 0 0 1.046-1.045V27.293a1.046 1.046 0 0 0-1.046-1.045zm1.045 2.091h38.3v48.985h-5.429V34.77a1.046 1.046 0 0 0-1.046-1.046h-31.826zm-7.523 7.476h38.3V84.8h-38.3z" transform="translate(-140.779 -26.248)" style="fill:#00aeef"/>
            <path data-name="noun-report-4573082" d="M160.447 42.635a1.045 1.045 0 0 0-1.047 1.045v2.249a9.533 9.533 0 1 0 10.543 10.52h2.257a1.045 1.045 0 0 0 1.045-1.045 12.8 12.8 0 0 0-12.8-12.769zm-1.046 5.4V55.4a1.045 1.045 0 0 0 1.045 1.045h7.391a7.463 7.463 0 1 1-8.436-8.414zM151.15 69.4a1.046 1.046 0 1 0 0 2.091h21.739a1.046 1.046 0 0 0 0-2.091zm0 6.626a1.046 1.046 0 1 0 0 2.091h21.739a1.046 1.046 0 0 0 0-2.091z" transform="translate(-140.779 -26.248)" style="fill:#124094"/>
        </g>
    </g>
</svg>
