<svg xmlns="http://www.w3.org/2000/svg" width="24" height="24">
    <g data-name="Group 6011">
        <path data-name="Path 20641" d="M21423.277 20433.1a1.06 1.06 0 0 1 0-1.426c3.979-4.375 7.727-4.848 9.152-4.848s5.174.473 9.154 4.848a1.065 1.065 0 0 1 0 1.426c-3.98 4.375-7.729 4.844-9.154 4.844s-5.173-.467-9.152-4.844zm.627-.855a.215.215 0 0 0 0 .285c.975 1.07 4.465 4.563 8.516 4.563s7.553-3.508 8.527-4.57l.008.008a.21.21 0 0 0 0-.285c-.975-1.07-4.473-4.566-8.525-4.566s-7.551 3.504-8.53 4.566zm5.072.18a3.507 3.507 0 1 1 3.523 3.473h-.016a3.509 3.509 0 0 1-3.506-3.472zm.848-.086a2.659 2.659 0 0 0 2.605 2.7v.008a2.688 2.688 0 0 0 2.713-2.656 2.66 2.66 0 0 0-2.637-2.668h-.025a2.655 2.655 0 0 0-2.656 2.617z" transform="translate(-21420.432 -20420.672)" style="fill:#a1bbe5;stroke:#a1bbe5;stroke-width:.4px"/>
    </g>
</svg>
