<svg xmlns="http://www.w3.org/2000/svg" width="18.998" height="18.998" viewBox="0 0 18.998 18.998">
    <g data-name="Group 3579">
        <path data-name="Path 6129" d="M302.367 77.123V73.3a.5.5 0 0 0-1.005 0v3.82a2.27 2.27 0 0 0 0 4.423v9.349a.5.5 0 0 0 1.005 0v-9.346a2.27 2.27 0 0 0 0-4.423zm-.5 3.468a1.257 1.257 0 1 1 1.257-1.257 1.244 1.244 0 0 1-1.259 1.257z" transform="translate(-292.365 -72.6)" style="fill:#6c7380;stroke:#6c7380;stroke-width:.4px"/>
        <path data-name="Path 6130" d="M458.16 86.32v4.574a.5.5 0 0 0 1.005 0V86.32a2.27 2.27 0 0 0 0-4.423V73.3a.5.5 0 0 0-1.005 0v8.6a2.27 2.27 0 0 0 0 4.423zm.5-3.468a1.257 1.257 0 1 1-1.257 1.257 1.244 1.244 0 0 1 1.26-1.257z" transform="translate(-442.126 -72.598)" style="fill:#6c7380;stroke:#6c7380;stroke-width:.4px"/>
        <path data-name="Path 6131" d="M145.567 90.893v-4.574a2.27 2.27 0 0 0 0-4.423V73.3a.5.5 0 0 0-1.005 0v8.6a2.27 2.27 0 0 0 0 4.423v4.574a.5.5 0 1 0 1.005 0zm-1.759-6.785a1.257 1.257 0 1 1 1.257 1.257 1.244 1.244 0 0 1-1.257-1.258z" transform="translate(-142.603 -72.598)" style="fill:#6c7380;stroke:#6c7380;stroke-width:.4px"/>
    </g>
</svg>
