<svg xmlns="http://www.w3.org/2000/svg" width="20.887" height="16.291" viewBox="0 0 20.887 16.291">
    <path data-name="Path 6135" d="M93.145 75.014V66.4a1.539 1.539 0 0 0-1.538-1.536H76.995a1.538 1.538 0 0 0-1.536 1.536v2.936h-1.513a1.289 1.289 0 0 0-1.288 1.287v6.813a1.29 1.29 0 0 0 1.288 1.289h.693L74 80.276a.344.344 0 0 0 .49.431l3.4-1.984h7.61a1.289 1.289 0 0 0 1.287-1.289v-.778l4.182 2.418a.348.348 0 0 0 .172.047h.017a.345.345 0 0 0 .259-.573l-.884-1.994h1.073a1.541 1.541 0 0 0 1.538-1.539zm-7.645 3.02h-7.611a.592.592 0 0 0-.294.079L75.022 79.6l.313-.754a.587.587 0 0 0-.54-.814h-.848a.6.6 0 0 1-.6-.6V70.62a.6.6 0 0 1 .6-.6h1.512v4.99a1.54 1.54 0 0 0 1.536 1.539l9.1-.005v.886a.6.6 0 0 1-.6.6zM90 76.15a.643.643 0 0 0-.061.614l.5 1.2-3.491-2.019a.665.665 0 0 0-.321-.086h-9.632a.848.848 0 0 1-.845-.849V66.4a.846.846 0 0 1 .845-.845h14.612a.847.847 0 0 1 .848.845v8.616a.849.849 0 0 1-.848.849h-1.073a.644.644 0 0 0-.534.285z" style="fill:#6c7380;stroke:#6c7380;stroke-width:.4px" transform="translate(-72.458 -64.662)"/>
    <path data-name="Path 6136" d="M262.908 279.51h-9.1a.345.345 0 1 0 0 .689h9.1a.345.345 0 1 0 0-.689z" transform="translate(-246.59 -271.382)" style="fill:#6c7380;stroke:#6c7380;stroke-width:.4px"/>
    <path data-name="Path 6137" d="M262.908 213.9h-9.1a.345.345 0 1 0 0 .689h9.1a.345.345 0 1 0 0-.689z" transform="translate(-246.59 -208.195)" style="fill:#6c7380;stroke:#6c7380;stroke-width:.4px"/>
    <path data-name="Path 6138" d="M262.908 148.33h-9.1a.345.345 0 1 0 0 .689h9.1a.345.345 0 1 0 0-.689z" transform="translate(-246.59 -145.047)" style="fill:#6c7380;stroke:#6c7380;stroke-width:.4px"/>
</svg>
