<svg xmlns="http://www.w3.org/2000/svg" width="21.371" height="21.375" viewBox="0 0 21.371 21.375">
    <g data-name="Group 3650">
        <path data-name="Path 6168" d="M145.086 85.775A10.687 10.687 0 1 0 134.4 75.087a10.709 10.709 0 0 0 10.686 10.688zm0-19.987a9.3 9.3 0 1 1-9.3 9.3 9.3 9.3 0 0 1 9.3-9.3z" transform="translate(-134.4 -64.4)" style="fill:#ef3232"/>
        <path data-name="Union 84" d="M5.346 11.279V6.53H.592a.595.595 0 0 1 0-1.189h4.754V.592a.593.593 0 0 1 1.186 0v4.749h4.748a.595.595 0 1 1 0 1.189H6.531v4.749a.593.593 0 0 1-1.186 0z" transform="rotate(45 2.578 14.042)" style="fill:#ef3232"/>
    </g>
</svg>
