<svg xmlns="http://www.w3.org/2000/svg" width="21.99" height="21.994" viewBox="0 0 21.99 21.994">
    <g data-name="Group 3648">
        <path data-name="Path 6168" d="M145.4 86.394a11 11 0 1 0-11-11 11.019 11.019 0 0 0 11 11zm0-20.566a9.569 9.569 0 1 1-9.567 9.569 9.569 9.569 0 0 1 9.567-9.569z" transform="translate(-134.4 -64.4)" style="fill:#09bc87"/>
        <path data-name="Path 6169" d="M248.577 218.169a.688.688 0 0 0 .514.2.669.669 0 0 0 .485-.2l5.912-5.627a.707.707 0 1 0-.971-1.028l-5.426 5.17-2.884-2.913a.707.707 0 0 0-1 1z" transform="translate(-239.352 -203.83)" style="fill:#09bc87"/>
    </g>
</svg>
