<svg xmlns="http://www.w3.org/2000/svg" width="22" height="21.998" viewBox="0 0 22 21.998">
    <g data-name="Group 3490">
        <path data-name="Path 1832" d="M-239.055 17.835a8.723 8.723 0 0 0-4.742-3.663 4.273 4.273 0 0 0 1.678-3.382 4.3 4.3 0 0 0-4.294-4.29 4.3 4.3 0 0 0-4.295 4.295 4.272 4.272 0 0 0 1.678 3.382 8.723 8.723 0 0 0-4.742 3.663 9.618 9.618 0 0 1-2.305-6.247 9.675 9.675 0 0 1 9.663-9.664 9.675 9.675 0 0 1 9.663 9.664 9.618 9.618 0 0 1-2.305 6.247m-10.317-7.045a2.961 2.961 0 0 1 2.958-2.958 2.961 2.961 0 0 1 2.958 2.958 2.961 2.961 0 0 1-2.958 2.958 2.961 2.961 0 0 1-2.958-2.958m2.958 10.46a9.608 9.608 0 0 1-6.416-2.457c.016-.022.042-.032.057-.057a7.4 7.4 0 0 1 6.358-3.65 7.4 7.4 0 0 1 6.357 3.648.651.651 0 0 0 .059.061 9.615 9.615 0 0 1-6.412 2.453m0-20.662a11.014 11.014 0 0 0-11 11 11.012 11.012 0 0 0 11 11 11.012 11.012 0 0 0 11-11 11.014 11.014 0 0 0-11-11" transform="translate(257.413 -.588)" style="fill:#a1bbe5;fill-rule:evenodd"/>
    </g>
</svg>
