<svg xmlns="http://www.w3.org/2000/svg" width="1329.916" height="768" viewBox="0 0 1329.916 768">
  <g id="Group_8374" data-name="Group 8374" transform="translate(-112.934 -75.104)" opacity="0.06">
    <path id="Path_4371" data-name="Path 4371" d="M715.586,0c0,134.651-109.163,243.814-243.814,243.814C337.1,243.814,227.958,134.651,227.958,0H28.472c0,244.826,198.474,443.3,443.3,443.3S915.072,244.826,915.072,0Z" transform="translate(527.777 75.104)" fill="#f04e45"/>
    <path id="Path_4372" data-name="Path 4372" d="M199.486,464.171c0-134.651,109.163-243.83,243.814-243.83,134.667,0,243.83,109.179,243.83,243.83H886.616c0-244.842-198.474-443.316-443.316-443.316C198.474,20.855,0,219.329,0,464.171Z" transform="translate(112.934 378.933)" fill="#03002f"/>
  </g>
</svg>
