<svg xmlns="http://www.w3.org/2000/svg" width="174.252" height="30.001" viewBox="0 0 174.252 30.001">
    <g data-name="Group 3489">
        <path data-name="Path 6018" d="M165.625 21.567h14.113v1.982h-11.83v6.726h11.085v2.006h-11.084v7.348h11.969v1.983h-14.253z" transform="translate(-129.285 -16.799)" style="fill-rule:evenodd;fill:#fff"/>
        <path data-name="Path 6019" d="m255.238 40.185.334-.009.318-.026.306-.041.29-.058.279-.073.263-.088.251-.1.239-.115.226-.128.214-.139.2-.152.191-.16.18-.173.168-.184.16-.192.148-.2.138-.209.127-.22.118-.226.108-.233.1-.239.09-.248.08-.25.07-.254.061-.263.053-.263.043-.265.037-.269.028-.271.018-.271.012-.27v-.541l-.012-.269-.018-.269-.028-.269-.037-.267-.043-.265-.053-.264-.061-.26-.07-.255-.08-.251-.09-.246-.1-.239-.108-.234-.118-.228-.127-.218-.138-.213-.148-.2-.16-.193-.168-.184-.18-.173-.191-.163-.2-.151-.214-.14-.227-.128-.238-.114-.251-.1-.264-.089-.277-.073-.29-.058-.306-.043-.318-.026-.334-.01-.294.01-.283.026-.27.042-.26.059-.246.072-.238.088-.227.1-.216.114-.2.127-.2.14-.186.151-.177.162-.166.173-.159.184-.149.193-.138.2-.131.211-.122.22-.112.228-.1.233-.094.241-.086.246-.078.251-.069.256-.059.26-.053.264-.043.265-.036.268-.027.269-.021.269-.011.271v.539l.011.271.021.271.027.271.036.269.043.265.053.265.059.261.069.256.078.25.086.248.094.239.1.235.112.225.122.22.13.212.139.2.149.192.158.182.167.175.177.16.186.152.2.137.206.128.216.111.226.1.237.086.247.073.26.058.27.043.283.023zm3.527.731-.172.113-.177.109-.181.1-.184.1-.188.092-.191.085-.194.079-.2.073-.2.066-.2.062-.2.054-.2.047-.205.041-.207.032-.206.028-.206.017-.207.013h-.206l-.41-.009-.4-.032-.383-.051-.371-.068-.358-.09-.346-.107-.331-.126-.32-.143-.307-.158-.293-.175-.28-.192-.267-.205-.253-.222-.24-.235-.226-.246-.214-.259-.2-.274-.186-.282-.174-.295-.16-.3-.147-.314-.133-.325-.121-.329-.108-.338-.094-.348-.082-.353-.07-.359-.057-.365-.043-.37-.031-.374-.018-.379-.006-.382.006-.382.018-.377.031-.374.043-.369.057-.364.07-.36.082-.353.094-.346.108-.339.121-.331.133-.324.147-.314.16-.3.174-.3.186-.284.2-.275.214-.261.226-.249.239-.236.254-.221.266-.208.28-.192.294-.179.306-.16.32-.144.333-.127.345-.108.36-.091.37-.071.385-.051.4-.031.409-.01h.21l.207.01.207.016.206.023.2.03.2.036.2.042.2.049.2.054.193.061.192.067.188.075.185.081.182.086.178.093.174.1.169.107.165.111.161.119.155.124.151.132.145.138.14.143.133.15.126.156.122.162.113.168.107.173.039.07v-7.6h2.167v20.05h-2.027v-2.208l-.052.083-.111.162-.119.16-.127.154-.133.149-.139.145-.147.141-.151.135-.158.13-.162.124z" transform="translate(-194.063 -16.799)" style="fill-rule:evenodd;fill:#fff"/>
        <path data-name="Path 6020" d="M343.935 51.139v-.033l-.022-.237-.03-.237-.039-.233-.047-.232-.056-.228-.065-.226-.073-.22-.082-.217-.089-.212-.1-.207-.106-.2-.112-.2-.121-.188-.129-.182-.136-.175-.145-.169-.151-.159-.16-.15-.164-.143-.173-.133-.181-.123-.188-.113-.194-.1-.2-.093-.21-.081-.216-.07-.222-.058-.229-.046-.24-.034-.244-.02-.253-.008-.253.008-.246.02-.24.035-.231.045-.222.06-.218.069-.21.083-.2.093-.194.1-.19.116-.181.123-.175.134-.166.144-.162.151-.153.161-.147.167-.14.176-.132.182-.125.19-.119.2-.11.2-.1.207-.1.213-.089.217-.082.22-.073.226-.067.228-.061.231-.052.234-.045.236-.037.237v.017zm-8.925 1.888v.032l.015.236.019.237.03.237.037.24.045.24.054.24.063.238.071.233.08.233.089.227.1.222.106.22.112.214.125.207.132.2.143.192.151.184.162.177.168.166.181.158.19.145.2.136.209.123.218.112.231.1.242.084.253.071.264.058.274.041.287.024.3.009h.229l.222-.011.214-.021.209-.028.2-.039.2-.043.188-.052.181-.058.175-.067.169-.073.164-.08.158-.086.151-.093.147-.1.138-.106.136-.112.13-.119.123-.123.117-.132.114-.134.108-.142.1-.147.1-.151.091-.158.088-.162.082-.166.078-.173.071-.175.069-.182.063-.186.058-.19.1-.341h2.151l-.138.549-.084.3-.089.289-.1.281-.106.274-.11.263-.121.257-.127.248-.134.24-.142.231-.151.22-.16.214-.168.205-.175.194-.186.186-.194.175-.2.166-.212.155-.22.147-.231.134-.237.125-.246.117-.257.1-.266.093-.274.082-.285.071-.294.063-.3.05-.313.039-.322.028-.333.017h-.343l-.432-.009-.415-.032-.4-.05-.387-.071-.371-.088-.356-.108-.343-.125-.326-.145-.313-.16-.3-.177-.283-.192-.268-.207-.255-.222-.24-.238-.225-.25-.212-.261-.2-.274-.181-.285-.168-.3-.155-.307-.142-.317-.128-.326-.117-.333-.1-.343-.091-.35-.078-.358-.065-.363-.052-.369-.041-.376-.03-.38-.017-.384v-.748l.017-.36.03-.358.041-.357.052-.355.065-.352.078-.348.091-.344.1-.338.117-.333.128-.327.14-.318.156-.311.168-.3.184-.293.194-.282.212-.271.225-.259.237-.247.255-.234.268-.218.283-.2.3-.189.311-.172.328-.153.343-.135.356-.118.374-.1.387-.077.4-.056.417-.032.432-.012.438.012.421.036.406.058.389.081.374.1.36.124.341.144.326.163.311.18.3.2.281.217.263.232.248.246.233.262.22.275.2.287.19.3.173.311.162.321.145.329.134.339.117.347.106.354.093.361.078.365.067.371.054.376.039.379.03.382.015.383v.385l-.011.579z" transform="translate(-259.824 -34.826)" style="fill-rule:evenodd;fill:#fff"/>
        <path data-name="Rectangle 949" transform="translate(90.918 4.768)" style="fill:#fff" d="M0 0h2.166v20.044H0z"/>
        <path data-name="Path 6021" d="M461.549 46.416h2.282l-4.785 14.767h-2.179l-3.427-11.674-3.4 11.674h-2.2l-4.74-14.767h2.285l3.55 11.888 3.365-11.888h2.3l3.4 11.89z" transform="translate(-345.91 -36.297)" style="fill-rule:evenodd;fill:#fff"/>
        <path data-name="Path 6022" d="M563.59 51.139v-.033l-.021-.237-.03-.237-.039-.232-.048-.231-.056-.229-.063-.225-.071-.22-.082-.217-.088-.212-.1-.207-.1-.2-.112-.2-.121-.189-.127-.183-.136-.174-.145-.169-.151-.159-.157-.15-.166-.143-.173-.133-.181-.123-.188-.113-.194-.1-.2-.093-.21-.081-.216-.07-.225-.058-.231-.046-.24-.034-.246-.02-.255-.008-.249.008-.242.02-.235.035-.227.045-.222.059-.214.07-.207.083-.2.093-.192.1-.188.116-.179.123-.173.134-.166.142-.16.151-.153.161-.145.169-.138.176-.132.182-.125.189-.117.2-.112.2-.1.209-.1.213-.089.217-.082.22-.073.225-.067.229-.058.231-.054.234-.043.236-.037.236v.019zm-8.88 1.888v.032l.013.236.022.237.03.237.037.24.045.242.054.237.06.238.071.233.08.233.086.227.1.225.106.218.114.214.121.207.134.2.14.192.149.186.16.175.168.166.177.158.188.147.2.134.205.125.218.11.227.1.24.084.248.071.259.058.272.041.283.024.3.009h.229l.225-.011.218-.021.21-.028.2-.039.2-.043.19-.052.181-.058.177-.067.17-.073.162-.08.158-.086.151-.093.145-.1.14-.106.134-.112.127-.119.123-.123.117-.13.112-.136.108-.142.1-.145.1-.153.093-.155.086-.162.082-.169.076-.173.073-.175.067-.182.063-.186.058-.19.093-.341h2.177l-.138.549-.084.3-.091.289-.1.283-.106.272-.112.263-.121.257-.127.248-.134.24-.145.231-.151.222-.162.212-.168.205-.177.194-.188.186-.194.175-.2.166-.212.155-.222.147-.229.136-.24.123-.248.117-.257.1-.266.093-.276.082-.285.071-.3.063-.3.05-.313.039-.324.028-.33.017h-.343l-.428-.009-.412-.032-.4-.05-.384-.071-.367-.088-.357-.108-.339-.125-.332-.143-.311-.16-.3-.177-.283-.192-.268-.207-.255-.224-.237-.236-.225-.25-.209-.261-.2-.274-.181-.285-.171-.3-.153-.307-.142-.315-.13-.328-.115-.333-.1-.343-.091-.35-.078-.358-.067-.363-.052-.369-.041-.376-.03-.38-.015-.384-.006-.387.006-.361.015-.36.03-.359.041-.356.054-.355.065-.352.078-.349.091-.343.1-.339.115-.333.13-.326.14-.318.155-.311.168-.3.181-.293.2-.282.209-.271.225-.259.237-.247.253-.233.268-.219.283-.2.3-.189.311-.172.326-.153.339-.135.356-.117.369-.1.384-.077.4-.056.412-.032.43-.012.438.012.421.036.406.058.389.081.376.1.358.124.343.144.328.163.311.18.3.2.281.216.266.232.251.247.233.261.22.275.207.288.188.3.175.31.162.321.147.33.134.338.121.348.106.353.093.362.078.365.069.371.054.376.039.379.03.382.017.383v.385l-.011.579z" transform="translate(-431.303 -34.826)" style="fill-rule:evenodd;fill:#fff"/>
        <path data-name="Path 6023" d="M633.946 27h2.118v14.612h-2.118zm0-5.436h2.118v3.158h-2.118z" transform="translate(-494.777 -16.799)" style="fill-rule:evenodd;fill:#fff"/>
        <path data-name="Path 6024" d="m675.3 49.58-.022-.384-.019-.185-.028-.178-.035-.17-.045-.163-.052-.157-.058-.149-.067-.144-.073-.136-.08-.13-.086-.123-.093-.118-.1-.111-.106-.106-.11-.1-.117-.094-.121-.087-.127-.082-.134-.077-.138-.07-.14-.065-.147-.059-.151-.054-.155-.048-.158-.042-.162-.037-.166-.03-.17-.026-.171-.019-.175-.014-.175-.009h-.177l-.287.008-.289.022-.287.037-.285.054-.279.071-.266.088-.255.107-.238.125-.218.145-.2.164-.171.186-.147.2-.121.231-.086.255-.056.284-.019.311.017.254.052.228.084.209.11.193.138.178.162.164.186.151.2.138.218.125.231.115.24.1.242.091.244.083.242.073.238.066.225.059 2.319.51.186.031.192.036.195.043.192.048.19.055.192.059.188.066.186.072.184.077.181.085.179.09.175.1.169.1.166.11.16.117.156.124.147.13.145.137.136.145.13.153.121.16.112.164.106.177.1.179.084.19.076.2.065.2.054.212.043.218.03.227.019.231.006.242-.009.3-.028.287-.045.276-.063.266-.08.255-.095.246-.11.233-.123.222-.138.212-.151.2-.162.192-.175.179-.186.168-.194.16-.2.149-.212.14-.22.13-.225.121-.233.11-.238.1-.244.091-.246.084-.251.076-.255.067-.257.058-.257.05-.259.041-.259.035-.261.026-.259.019-.257.011H671.687l-.311-.013-.3-.024-.3-.035-.291-.041-.285-.054-.279-.06-.27-.073-.263-.082-.255-.093-.248-.1-.238-.112-.233-.125-.222-.134-.214-.145-.205-.158-.2-.166-.186-.177-.177-.19-.169-.2-.155-.21-.147-.22-.134-.231-.125-.242-.112-.253-.1-.263-.091-.274-.08-.283-.069-.3-.056-.307-.045-.315-.054-.542h2.147l.037.389.028.2.035.192.045.188.052.179.061.173.069.166.073.16.082.153.091.147.1.14.1.134.11.13.116.121.123.117.13.108.136.1.142.1.149.091.154.084.16.078.164.071.171.065.175.056.181.052.186.045.19.037.2.032.2.024.205.017.209.011h.357l.151-.006.156-.011.155-.015.16-.019.158-.024.16-.03.162-.032.16-.039.158-.043.158-.048.155-.052.151-.061.149-.063.145-.069.14-.073.136-.08.129-.084.123-.088.119-.1.108-.1.1-.106.1-.11.086-.117.078-.123.069-.13.06-.132.052-.14.039-.147.028-.155.019-.162v-.166l-.017-.276-.048-.246-.076-.224-.1-.2-.127-.188-.153-.173-.177-.158-.2-.145-.216-.134-.236-.121-.25-.112-.263-.1-.272-.1-.281-.086-.287-.08-.287-.076-2.261-.512-.216-.059-.212-.058-.207-.062-.205-.063-.2-.066-.2-.067-.192-.073-.188-.074-.183-.077-.177-.083-.175-.086-.169-.091-.162-.1-.158-.1-.151-.106-.145-.111-.138-.118-.132-.125-.125-.13-.117-.138-.108-.145-.1-.153-.093-.161-.082-.168-.075-.175-.065-.182-.056-.191-.045-.2-.035-.207-.028-.216-.015-.225v-.234l.009-.281.026-.272.041-.262.058-.252.073-.242.089-.231.1-.22.117-.212.13-.2.14-.19.151-.18.164-.17.173-.159.184-.151.188-.139.2-.132.2-.122.212-.112.22-.1.222-.095.229-.086.233-.078.235-.071.24-.061.244-.054.242-.046.246-.039.246-.031.246-.025.248-.017.244-.01h.516l.27.014.263.023.261.031.255.041.253.051.248.061.242.068.237.079.231.089.225.1.218.107.212.119.205.126.2.136.188.146.181.158.175.166.164.175.153.186.145.2.136.2.125.215.112.225.1.233.091.243.08.253.069.262.056.271.043.281.03.289.032.505z" transform="translate(-519.877 -34.826)" style="fill-rule:evenodd;fill:#fff"/>
        <path data-name="Path 6025" d="m744.919 44.53-.244.01-.244.017-.246.025-.244.031-.246.039-.244.046-.24.054-.24.062-.235.071-.233.078-.229.086-.224.1-.218.1-.212.112-.207.122-.2.132-.19.139-.184.15-.173.16-.164.17-.154.179-.14.191-.13.2-.117.211-.1.22-.088.232-.073.241-.058.253-.043.263-.026.272-.009.281v.234l.015.224.028.216.035.208.048.2.056.191.065.184.078.175.082.167.093.16.1.153.11.144.117.138.127.13.132.125.141.117.145.111.153.106.158.1.164.095.168.09.175.086.179.082.186.077.186.074.194.073.2.067.2.065.2.063.207.062.212.058.218.059 2.237.512.292.076.289.082.285.084.276.095.266.1.251.112.235.121.22.134.2.145.175.158.153.173.13.188.1.2.078.224.045.246.018.276-.007.167-.017.162-.028.155-.041.147-.049.14-.06.132-.069.13-.078.123-.086.117-.1.11-.1.106-.113.1-.116.1-.125.089-.132.084-.136.08-.14.073-.147.069-.149.063-.156.058-.157.054-.158.048-.162.043-.162.039-.162.032-.162.03-.162.024-.162.019-.162.015-.155.011-.156.007h-.361l-.2-.011-.2-.017-.2-.024-.192-.032-.188-.037-.183-.045-.179-.05-.175-.058-.169-.065-.164-.071-.16-.078-.153-.084-.147-.091-.14-.1-.136-.1-.127-.108-.123-.117-.117-.121-.11-.13-.1-.134-.095-.14-.091-.147-.082-.153-.073-.16-.067-.166-.06-.173-.05-.179-.043-.186-.035-.192-.028-.2-.03-.393h-2.149l.054.542.045.316.056.306.067.3.08.283.093.274.1.264.112.253.125.242.136.231.147.22.156.209.166.2.175.19.186.177.2.166.2.155.214.147.222.134.231.123.24.115.246.1.255.1.261.082.268.073.279.06.283.054.289.041.3.034.3.024.311.013H745.419l.259-.011.261-.019.261-.026.261-.035.261-.041.259-.05.257-.058.255-.067.253-.076.254-.087.244-.09.238-.1.235-.11.227-.121.22-.13.21-.14.205-.149.194-.159.186-.169.175-.179.162-.192.151-.2.138-.212.123-.222.113-.233.095-.246.08-.255.06-.266.045-.276.03-.287.009-.3-.007-.242-.02-.231-.03-.227-.043-.218-.052-.212-.065-.2-.073-.2-.087-.188-.1-.181-.1-.175-.112-.167-.119-.16-.127-.151-.138-.147-.142-.137-.147-.13-.156-.124-.16-.117-.164-.11-.171-.1-.175-.1-.177-.09-.181-.085-.184-.077-.188-.072-.19-.067-.19-.058-.194-.056-.194-.048-.194-.043-.194-.036-.188-.03-2.343-.511-.222-.058-.235-.065-.242-.073-.242-.083-.242-.091-.236-.1-.229-.115-.216-.125-.2-.138-.182-.15-.16-.164-.136-.178-.11-.192-.082-.211-.052-.229-.019-.254.019-.312.056-.283.089-.255.119-.231.147-.206.173-.185.194-.165.22-.144.235-.125.253-.107.266-.088.274-.071.283-.054.285-.037.283-.021.285-.008h.177l.179.009.177.014.171.019.171.026.166.03.164.036.16.042.155.047.149.054.149.059.142.065.136.07.134.077.127.082.121.087.116.094.112.1.1.106.1.111.093.118.086.123.082.13.073.136.067.144.058.149.054.157.045.163.037.17.03.178.021.185.026.382h2.142l-.028-.5-.028-.289-.041-.282-.054-.27-.067-.262-.077-.253-.089-.243-.1-.233-.112-.226-.123-.215-.134-.205-.143-.2-.156-.184-.162-.176-.173-.166-.181-.158-.188-.146-.2-.136-.205-.128-.214-.118-.22-.107-.224-.1-.231-.089-.238-.079-.246-.07-.248-.059-.255-.051-.259-.041-.264-.031-.268-.023-.272-.014h-.274z" transform="translate(-576.885 -34.828)" style="fill:#fff"/>
        <path data-name="Path 6026" d="M1.57 15.772h9.561a4.449 4.449 0 0 0-1.536.573 1.7 1.7 0 0 0-.788 2.275 1.73 1.73 0 0 0 2.379.459c1.194-.573 2.031-2.23 3.393-3.146-.119 1.63-1.145 3.178-1.047 4.491a1.714 1.714 0 0 0 1.589 1.816 1.715 1.715 0 0 0 1.591-1.816c.1-1.312-.929-2.86-1.048-4.491 1.363.918 2.2 2.574 3.394 3.146a1.729 1.729 0 0 0 2.379-.459 1.7 1.7 0 0 0-.788-2.275c-1.1-.741-2.961-.633-4.441-1.346 1.48-.713 3.344-.6 4.441-1.344a1.705 1.705 0 0 0 .788-2.275 1.729 1.729 0 0 0-2.379-.459c-1.194.571-2.031 2.229-3.394 3.146.119-1.631 1.145-3.179 1.048-4.492a1.714 1.714 0 0 0-1.591-1.815 1.713 1.713 0 0 0-1.589 1.815c-.1 1.313.929 2.861 1.047 4.492-1.363-.918-2.2-2.574-3.393-3.146a1.729 1.729 0 0 0-2.379.46 1.7 1.7 0 0 0 .788 2.275 4.46 4.46 0 0 0 1.538.571H1.57a13.585 13.585 0 0 1 25.07-6.316h1.786A15.129 15.129 0 0 0 0 15a15.129 15.129 0 0 0 28.424 7.09h-1.786A13.585 13.585 0 0 1 1.57 15.772" style="fill-rule:evenodd;fill:#fff"/>
    </g>
</svg>
