<svg xmlns="http://www.w3.org/2000/svg" xmlns:xlink="http://www.w3.org/1999/xlink" width="160.811" height="30.312" viewBox="0 0 160.811 30.312">
  <defs>
    <clipPath id="clip-path">
      <rect id="Rectangle_957" data-name="Rectangle 957" width="160.811" height="30.312" fill="none"/>
    </clipPath>
  </defs>
  <g id="Group_3946" data-name="Group 3946" transform="translate(0 0)">
    <g id="Group_3946-2" data-name="Group 3946" transform="translate(0 0)" clip-path="url(#clip-path)">
      <path id="Path_6240" data-name="Path 6240" d="M69.887,2.073c.31.184.617.376.916.583,2.566-1.7,3.713-1.819,3.971-1.578.965.9-2.748,7.693-10.764,16.289S49.477,30.141,48.512,29.24c-.258-.241-.221-1.395,1.3-4.075-.227-.285-.44-.577-.645-.875-1.742,2.965-2.195,4.874-1.333,5.678C50.1,32.086,59.187,24,64.738,18.046S77.724,2.467,75.453.35c-.861-.8-2.732-.219-5.566,1.723" transform="translate(-21.357 0)" fill="#fff"/>
      <path id="Path_6241" data-name="Path 6241" d="M66.754,25.26a1.722,1.722,0,1,1-2.434.085,1.722,1.722,0,0,1,2.434-.085" transform="translate(-28.767 -11.171)" fill="#fff"/>
      <path id="Path_6242" data-name="Path 6242" d="M80.206,35.467a1.184,1.184,0,1,1-1.673.058,1.183,1.183,0,0,1,1.673-.058" transform="translate(-35.235 -15.834)" fill="#f04e45"/>
      <path id="Path_6243" data-name="Path 6243" d="M11.122,29.792a11.315,11.315,0,0,1-5.737-1.451,10.332,10.332,0,0,1-3.957-4.022A12.063,12.063,0,0,1,0,18.362a12.066,12.066,0,0,1,1.428-5.957A10.336,10.336,0,0,1,5.385,8.383a11.315,11.315,0,0,1,5.737-1.451,10.822,10.822,0,0,1,6.791,2.11,9.528,9.528,0,0,1,3.539,5.716h-4.88a4.591,4.591,0,0,0-1.935-2.814,6.124,6.124,0,0,0-3.516-1.011,6.11,6.11,0,0,0-3.165.857A6.223,6.223,0,0,0,5.627,14.3a8.558,8.558,0,0,0-.88,4.066,8.557,8.557,0,0,0,.88,4.067,6.379,6.379,0,0,0,2.33,2.527,5.987,5.987,0,0,0,3.165.879,6.12,6.12,0,0,0,3.516-1.011,4.605,4.605,0,0,0,1.935-2.857h4.88a9.438,9.438,0,0,1-3.517,5.67,10.758,10.758,0,0,1-6.813,2.154" transform="translate(0 -3.123)" fill="#fff"/>
      <path id="Path_6244" data-name="Path 6244" d="M117.81,29.792A11,11,0,0,1,111,27.77a7.568,7.568,0,0,1-3.077-5.363h4.7a4.654,4.654,0,0,0,1.671,2.571,5.314,5.314,0,0,0,3.473,1.077,4.489,4.489,0,0,0,3.077-.879,2.67,2.67,0,0,0,.967-2.023,2.244,2.244,0,0,0-1.341-2.264,18.843,18.843,0,0,0-3.715-1.077,28.044,28.044,0,0,1-3.671-1.055,8.119,8.119,0,0,1-3.033-1.868,4.426,4.426,0,0,1-1.209-3.275,6.065,6.065,0,0,1,2.2-4.77,9.081,9.081,0,0,1,6.155-1.912,9.37,9.37,0,0,1,5.913,1.759,7.091,7.091,0,0,1,2.659,4.968h-4.484a3.228,3.228,0,0,0-1.3-2.2,4.76,4.76,0,0,0-2.879-.792,4.466,4.466,0,0,0-2.726.726,2.233,2.233,0,0,0-.967,1.868,2.005,2.005,0,0,0,1.34,1.8,17.344,17.344,0,0,0,3.539,1.187,38.071,38.071,0,0,1,4.066,1.121,7.2,7.2,0,0,1,3.011,1.868,5.12,5.12,0,0,1,1.143,3.6,6.1,6.1,0,0,1-2.308,4.968,9.626,9.626,0,0,1-6.4,1.978" transform="translate(-48.616 -3.123)" fill="#fff"/>
      <path id="Path_6245" data-name="Path 6245" d="M147.28,29.264V7.46h4.132l.4,3.077A7.663,7.663,0,0,1,154.6,7.9a8.133,8.133,0,0,1,4.023-.967q5.187,0,7.21,4.088a8.563,8.563,0,0,1,3.187-2.989,8.846,8.846,0,0,1,4.33-1.1,8.416,8.416,0,0,1,6.419,2.462q2.329,2.463,2.329,7.342V29.264h-4.659V17.219q0-6.33-4.836-6.33a5.024,5.024,0,0,0-4.022,1.846,7.95,7.95,0,0,0-1.561,5.276V29.264h-4.66V17.219q0-6.33-4.879-6.33a4.981,4.981,0,0,0-3.979,1.846,7.953,7.953,0,0,0-1.561,5.276V29.264Z" transform="translate(-66.347 -3.123)" fill="#fff"/>
      <path id="Path_6246" data-name="Path 6246" d="M226.348,29.792a11.043,11.043,0,0,1-5.605-1.428,10.42,10.42,0,0,1-3.935-4,12.007,12.007,0,0,1-1.451-6,11.862,11.862,0,0,1,1.473-6,10.542,10.542,0,0,1,3.979-4,11.67,11.67,0,0,1,11.188,0,10.6,10.6,0,0,1,3.957,4,11.861,11.861,0,0,1,1.473,6,11.862,11.862,0,0,1-1.473,6,10.539,10.539,0,0,1-3.979,4,11.165,11.165,0,0,1-5.627,1.428m0-4a6.033,6.033,0,0,0,3.1-.836,6.125,6.125,0,0,0,2.308-2.483,8.667,8.667,0,0,0,.879-4.111,8.847,8.847,0,0,0-.857-4.11,6.072,6.072,0,0,0-8.485-2.484,6.127,6.127,0,0,0-2.308,2.484,8.659,8.659,0,0,0-.879,4.11,8.661,8.661,0,0,0,.879,4.111,6.168,6.168,0,0,0,2.286,2.483,5.913,5.913,0,0,0,3.077.836" transform="translate(-97.015 -3.123)" fill="#fff"/>
      <path id="Path_6247" data-name="Path 6247" d="M268.689,29.792a11,11,0,0,1-6.814-2.022,7.568,7.568,0,0,1-3.077-5.363h4.7a4.65,4.65,0,0,0,1.671,2.571,5.314,5.314,0,0,0,3.473,1.077,4.489,4.489,0,0,0,3.077-.879,2.67,2.67,0,0,0,.967-2.023,2.244,2.244,0,0,0-1.341-2.264,18.841,18.841,0,0,0-3.715-1.077,28.045,28.045,0,0,1-3.671-1.055,8.121,8.121,0,0,1-3.033-1.868,4.423,4.423,0,0,1-1.209-3.275,6.065,6.065,0,0,1,2.2-4.77,9.079,9.079,0,0,1,6.155-1.912,9.37,9.37,0,0,1,5.913,1.759,7.091,7.091,0,0,1,2.659,4.968h-4.484a3.228,3.228,0,0,0-1.3-2.2,4.76,4.76,0,0,0-2.879-.792,4.465,4.465,0,0,0-2.726.726,2.235,2.235,0,0,0-.967,1.868,2.006,2.006,0,0,0,1.34,1.8,17.345,17.345,0,0,0,3.539,1.187,38.068,38.068,0,0,1,4.066,1.121,7.2,7.2,0,0,1,3.011,1.868,5.12,5.12,0,0,1,1.143,3.6,6.1,6.1,0,0,1-2.308,4.968,9.626,9.626,0,0,1-6.4,1.978" transform="translate(-116.584 -3.123)" fill="#fff"/>
      <path id="Path_6248" data-name="Path 6248" d="M62.3,7.382a7.686,7.686,0,0,1,6.223,3.172,53.237,53.237,0,0,0,3.72-5.341,14.012,14.012,0,0,0-23.951,9.878h6.3a7.706,7.706,0,0,1,7.7-7.709" transform="translate(-21.753 -0.486)" fill="#fff"/>
      <path id="Path_6249" data-name="Path 6249" d="M92.94,15.627c-1.194,1.8-2.76,3.868-4.487,5.962h5.954A13.956,13.956,0,0,0,93.02,15.5c-.027.041-.053.082-.08.123" transform="translate(-39.847 -6.984)" fill="#fff"/>
      <path id="Path_6250" data-name="Path 6250" d="M52.683,39.531a61.408,61.408,0,0,0,4.883-4.112,7.686,7.686,0,0,1-2.97-6.07h-6.3a13.971,13.971,0,0,0,4.391,10.182" transform="translate(-21.755 -13.221)" fill="#f04e45"/>
      <path id="Path_6251" data-name="Path 6251" d="M68.98,37.055c-.074,0-.145-.009-.219-.011-1.663,1.621-3.643,3.441-5.646,5.03A14.009,14.009,0,0,0,82.991,29.349h-6.3a7.706,7.706,0,0,1-7.706,7.706" transform="translate(-28.433 -13.221)" fill="#f04e45"/>
      <path id="Path_6252" data-name="Path 6252" d="M78.036,20.035a1.307,1.307,0,1,1-1.846.064,1.306,1.306,0,0,1,1.846-.064" transform="translate(-34.164 -8.867)" fill="#f04e45"/>
    </g>
  </g>
</svg>
