<svg data-name="Component 125 – 2226" xmlns="http://www.w3.org/2000/svg" width="24" height="24" viewBox="0 0 24 24">
    <path d="M104.906 22.77c-.054-.048-8-5.112-8.058-5.148a.6.6 0 0 0-.648 0c-.078.036-8.022 5.1-8.094 5.148a1.8 1.8 0 0 0-.6 1.356v9.6a1.8 1.8 0 0 0 1.8 1.8h14.4a1.8 1.8 0 0 0 1.8-1.8v-9.6a1.8 1.8 0 0 0-.6-1.356zm-16.2 1.356a.6.6 0 0 1 .18-.432l7.62-4.854 7.62 4.854a.6.6 0 0 1 .18.432v.3l-7.8 4.974-7.8-4.974zm15.6 9.6a.6.6 0 0 1-.6.6h-14.4a.6.6 0 0 1-.6-.6v-7.878l7.476 4.8a.6.6 0 0 0 .648 0l7.476-4.8z" transform="translate(-84.506 -15.526)" style="fill:#124094"/>
</svg>
