<svg data-name="Component 125 – 2410" xmlns="http://www.w3.org/2000/svg" width="24" height="24" viewBox="0 0 24 24">
    <path d="M103.7 87.5H89.3a1.8 1.8 0 0 0-1.8 1.8v9.6a1.8 1.8 0 0 0 1.8 1.8h14.4a1.8 1.8 0 0 0 1.8-1.8v-9.6a1.8 1.8 0 0 0-1.8-1.8zm-14.4 1.2h14.4a.6.6 0 0 1 .6.6v.336c-.174.06-7.644 4.842-7.8 4.944-.156-.1-7.626-4.884-7.8-4.944V89.3a.6.6 0 0 1 .6-.6zm14.4 10.8H89.3a.6.6 0 0 1-.6-.6v-7.872l7.476 4.77a.6.6 0 0 0 .648 0l7.476-4.77V98.9a.6.6 0 0 1-.6.6z" transform="translate(-84.5 -80.5)" style="fill:#124094"/>
</svg>
