<svg data-name="Component 125 – 256" xmlns="http://www.w3.org/2000/svg" width="30" height="30" viewBox="0 0 30 30">
    <path data-name="Union 97" d="M-1108.886-12502a2.131 2.131 0 0 1-1.493-.609 2.06 2.06 0 0 1-.619-1.468v-17.841a2.062 2.062 0 0 1 .619-1.471 2.131 2.131 0 0 1 1.493-.609h12.484a2.131 2.131 0 0 1 1.493.609 2.062 2.062 0 0 1 .619 1.471v17.841a2.061 2.061 0 0 1-.619 1.468 2.131 2.131 0 0 1-1.493.609zm12.482-1.386zm-13.186-.691a.7.7 0 0 0 .7.691h12.482a.7.7 0 0 0 .487-.2.675.675 0 0 0 .211-.49v-4.436h-13.883zm-.01-17.841v12.02h13.893v-12.02a.705.705 0 0 0-.7-.694h-12.493a.7.7 0 0 0-.7.692zm5.548 16.92a1.276 1.276 0 0 1-.374-.9 1.276 1.276 0 0 1 .374-.9 1.265 1.265 0 0 1 .9-.374 1.265 1.265 0 0 1 .9.374 1.276 1.276 0 0 1 .374.9 1.276 1.276 0 0 1-.374.9 1.261 1.261 0 0 1-.9.374 1.261 1.261 0 0 1-.9-.376z" transform="translate(1117.998 12528.001)" style="fill:#124094"/>
</svg>
