<svg data-name="Component 125 – 259" xmlns="http://www.w3.org/2000/svg" width="30" height="30" viewBox="0 0 30 30">
    <g data-name="Group 1828">
        <g data-name="Group 1825">
            <path data-name="Path 1068" d="M31.459 31.585a5.909 5.909 0 1 1 5.908-5.911 5.916 5.916 0 0 1-5.908 5.911zm0-10.831a4.921 4.921 0 1 0 4.919 4.92 4.925 4.925 0 0 0-4.919-4.92z" transform="translate(-15.996 -11.766)" style="fill:#6c7380;stroke:#6c7380;stroke-width:.3px"/>
        </g>
        <g data-name="Group 1826">
            <path data-name="Path 1069" d="M34.6 31.8h-.988a3.968 3.968 0 0 1 3.964-3.964v.988A2.98 2.98 0 0 0 34.6 31.8z" transform="translate(-22.115 -17.889)" style="fill:#6c7380;stroke:#6c7380;stroke-width:.3px"/>
        </g>
        <g data-name="Group 1827">
            <path data-name="Path 1070" d="M14.344 34.337c-6.335 0-11.411-6.705-11.624-6.991l-.22-.3.22-.3c.214-.285 5.29-6.99 11.624-6.99 6.359 0 10.7 6.734 10.881 7.021l.167.264-.167.264c-.182.295-4.525 7.032-10.881 7.032zm-10.6-7.286c1.05 1.282 5.482 6.3 10.6 6.3 5.134 0 9-5.07 9.867-6.3-.862-1.228-4.733-6.3-9.867-6.3s-9.544 5.016-10.598 6.3z" transform="translate(1.501 -11.765)" style="fill:#6c7380;stroke:#6c7380;stroke-width:.3px"/>
        </g>
    </g>
</svg>
