<svg data-name="Component 125 – 264" xmlns="http://www.w3.org/2000/svg" width="30" height="30" viewBox="0 0 30 30">
    <g transform="translate(-.887 1.028)">
        <path data-name="Path 1071" d="M32.651 40.036 31.3 41.361l3.6 3.6 6.118-6.038L39.7 37.6l-4.74 4.74z" transform="translate(-20.585 -26.844)" style="fill:#6c7380"/>
        <path data-name="Path 1072" d="M27.32 14.013a.559.559 0 0 0-.556.556A11.189 11.189 0 1 1 14.82 3.393l-.477.371a.544.544 0 0 0 .318.98.462.462 0 0 0 .318-.106l1.8-1.377a.566.566 0 0 0 .212-.45.5.5 0 0 0-.238-.424L14.952 1.2a.533.533 0 1 0-.609.874l.371.238a12.29 12.29 0 1 0 13.162 12.257.559.559 0 0 0-.556-.556z" style="fill:#6c7380"/>
        <circle data-name="Ellipse 91" cx=".662" cy=".662" r=".662" transform="translate(26.261 11.047)" style="fill:#6c7380"/>
        <circle data-name="Ellipse 92" cx=".662" cy=".662" r=".662" transform="translate(25.387 8.584)" style="fill:#6c7380"/>
        <circle data-name="Ellipse 93" cx=".662" cy=".662" r=".662" transform="translate(23.798 6.28)" style="fill:#6c7380"/>
        <circle data-name="Ellipse 94" cx=".662" cy=".662" r=".662" transform="translate(21.6 4.294)" style="fill:#6c7380"/>
        <circle data-name="Ellipse 95" cx=".662" cy=".662" r=".662" transform="translate(18.978 2.89)" style="fill:#6c7380"/>
    </g>
</svg>
