<svg data-name="Component 125 – 258" xmlns="http://www.w3.org/2000/svg" width="30" height="30" viewBox="0 0 30 30">
    <g data-name="Group 1824">
        <path data-name="Rectangle 941" transform="translate(6.001 24.365)" style="fill:#6c7380;stroke:#6c7380;stroke-width:.3px" d="M0 0h17.215v1.076H0z"/>
        <path data-name="Path 1066" d="M19.772 2.788 18.63 1.647a2.423 2.423 0 0 0-3.423 0L4.936 11.917a.538.538 0 0 0-.137.233l-1.522 5.326a.539.539 0 0 0 .665.666l5.327-1.522a.532.532 0 0 0 .233-.137l10.27-10.272a2.419 2.419 0 0 0 0-3.423zM8.839 15.622l-4.261 1.217 1.222-4.26 8.27-8.271 3.044 3.044zM19.011 5.451 17.87 6.592l-3.044-3.044 1.141-1.141a1.348 1.348 0 0 1 1.9 0l1.141 1.141a1.346 1.346 0 0 1 0 1.9z" transform="translate(3.811 4.061)" style="fill:#6c7380;stroke:#6c7380;stroke-width:.3px"/>
    </g>
</svg>
