<svg xmlns="http://www.w3.org/2000/svg" width="21.053" height="20.94" viewBox="0 0 21.053 20.94">
    <g data-name="Group 3487">
        <path data-name="Compound Path" d="M17.375 2.3v2.183h-.9a6.55 6.55 0 0 0-5.122 6.466v2.2a8.439 8.439 0 0 1-.861 3.695l-.924 1.91a.63.63 0 0 0 .567.9h4.828a3.086 3.086 0 0 0 6.088 0h4.828a.63.63 0 0 0 .567-.9l-.946-1.927a8.439 8.439 0 0 1-.84-3.674v-2.2A6.55 6.55 0 0 0 19.537 4.5h-.9V2.3zM18 21.067a1.826 1.826 0 0 1-1.763-1.406h3.527A1.826 1.826 0 0 1 18 21.067zm5.4-10.118v2.2a9.719 9.719 0 0 0 .987 4.24l.483 1.008H11.14l.5-1.008a9.719 9.719 0 0 0 .966-4.24v-2.2A5.311 5.311 0 0 1 16.7 5.743h2.6a5.311 5.311 0 0 1 4.1 5.206z" transform="translate(-9.504 -1.299)" style="fill:#fff"/>
        <g data-name="Path 1437" style="fill:#e47335">
            <path d="M5 9.5A4.505 4.505 0 0 1 .5 5C.5 2.519 2.519.5 5 .5S9.5 2.519 9.5 5 7.481 9.5 5 9.5z" style="stroke:none" transform="translate(11.053)"/>
            <path d="M5 1C2.794 1 1 2.794 1 5s1.794 4 4 4 4-1.794 4-4-1.794-4-4-4m0-1a5 5 0 1 1 0 10A5 5 0 0 1 5 0z" style="fill:#124094;stroke:none" transform="translate(11.053)"/>
        </g>
    </g>
</svg>
