<svg xmlns="http://www.w3.org/2000/svg" width="70.874" height="48.594" viewBox="0 0 70.874 48.594">
    <g data-name="Group 3539">
        <path data-name="Path 6071" d="M134.322 130.071a1.292 1.292 0 0 1-1.3 1.3h-15.571a3.188 3.188 0 0 1-2.956 2.163h-9.156a3.094 3.094 0 0 1-2.956-2.163H86.809a1.3 1.3 0 0 1 0-2.6h16.727a1.292 1.292 0 0 1 1.3 1.3v.288a.569.569 0 0 0 .577.577h9.157a.569.569 0 0 0 .577-.577v-.288a1.292 1.292 0 0 1 1.3-1.3h16.727a1.221 1.221 0 0 1 1.154 1.3zm11.031 0v3.389a6.431 6.431 0 0 1-6.417 6.417H80.9a6.431 6.431 0 0 1-6.417-6.417v-3.389a1.292 1.292 0 0 1 1.3-1.3h3.966V95.464a4.185 4.185 0 0 1 4.182-4.182h51.911a4.384 4.384 0 0 1 4.326 4.037v33.454h3.966a1.233 1.233 0 0 1 1.226 1.3zm-2.523 1.229h-3.966a1.292 1.292 0 0 1-1.3-1.3V95.536a1.922 1.922 0 0 0-1.8-1.731H83.853a1.631 1.631 0 0 0-1.658 1.658V130a1.292 1.292 0 0 1-1.3 1.3h-3.82v2.163a3.877 3.877 0 0 0 3.893 3.893h58.04a3.877 3.877 0 0 0 3.893-3.893V131.3z" transform="translate(-74.48 -91.282)" style="fill:#00aeef"/>
        <path data-name="Path 6072" d="M94.736 111.746a1.163 1.163 0 0 0 .937.433 1.085 1.085 0 0 0 .793-.288l5.912-5.047a1.232 1.232 0 0 0 0-1.875l-5.912-5.047a1.279 1.279 0 0 0-1.658 1.947l4.759 4.037-4.759 4.037a1.416 1.416 0 0 0-.072 1.8zm12.4-4.542h21.846a1.3 1.3 0 1 0 0-2.6h-21.845a1.3 1.3 0 0 0 0 2.6zm21.846 5.191h-27.324a1.3 1.3 0 1 0 0 2.6h27.326a1.292 1.292 0 0 0 1.3-1.3 1.34 1.34 0 0 0-1.301-1.295zm-33.31 10.31h33.238a1.292 1.292 0 0 0 1.3-1.3 1.215 1.215 0 0 0-1.226-1.226H95.673a1.292 1.292 0 0 0-1.3 1.3 1.277 1.277 0 0 0 1.3 1.226z" transform="translate(-76.856 -92.28)" style="fill:#124094"/>
    </g>
</svg>
