<svg xmlns="http://www.w3.org/2000/svg" width="24" height="24" viewBox="0 0 24 24">
    <g data-name="Component 125 – 3813" style="opacity:.2">
        <path data-name="Union 96" d="M-1109.392-12507a1.638 1.638 0 0 1-1.138-.472 1.632 1.632 0 0 1-.471-1.135v-13.789a1.634 1.634 0 0 1 .471-1.135 1.607 1.607 0 0 1 1.138-.471h9.5a1.606 1.606 0 0 1 1.135.471 1.608 1.608 0 0 1 .471 1.135v13.789a1.606 1.606 0 0 1-.471 1.135 1.636 1.636 0 0 1-1.135.472zm-.537-1.606a.54.54 0 0 0 .537.534h9.483a.538.538 0 0 0 .38-.154.529.529 0 0 0 .16-.38v-3.429h-10.561zm-.006-13.789v9.288h10.567v-9.288a.538.538 0 0 0-.534-.534h-9.5a.536.536 0 0 0-.534.534zm4.228 13.1a1 1 0 0 1-.292-.707 1.013 1.013 0 0 1 .292-.707 1.013 1.013 0 0 1 .707-.293 1 1 0 0 1 .707.293 1 1 0 0 1 .292.707.988.988 0 0 1-.292.707.989.989 0 0 1-.707.292 1 1 0 0 1-.708-.291zm.585-6.808-1.716-1.729a.354.354 0 0 1 0-.51.348.348 0 0 1 .509 0l1.468 1.483 2.763-2.634a.364.364 0 0 1 .506.016.365.365 0 0 1-.013.51l-3.011 2.863a.335.335 0 0 1-.245.1.346.346 0 0 1-.263-.096z" transform="translate(1117 12528)" style="fill:#6c7380"/>
    </g>
</svg>
