<svg data-name="Component 125 – 270" xmlns="http://www.w3.org/2000/svg" width="24" height="24" viewBox="0 0 24 24">
    <g data-name="Group 3640">
        <path data-name="Path 6168" d="M143.4 82.4a9 9 0 1 0-9-9 9.018 9.018 0 0 0 9 9zm0-16.831a7.831 7.831 0 1 1-7.83 7.831 7.831 7.831 0 0 1 7.83-7.831z" transform="translate(-131.398 -61.4)" style="fill:#09bc87"/>
        <path data-name="Path 6170" d="M.9-9.045h5.175v.013a8.438 8.438 0 0 1-.521.857H4.177a2.182 2.182 0 0 1 .387.92h1.473q.025.006.025.025-.5.838-.508.844H4.6a2.754 2.754 0 0 1-.36 1.041 2.424 2.424 0 0 1-.851.8 3.012 3.012 0 0 1-1.435.406v.013a2.367 2.367 0 0 0 .336.5l2.552 3.5v.164a.022.022 0 0 1-.025.025H3.694Q.66-3.942.66-3.961v-.812l.013-.032a3.874 3.874 0 0 0 .628.044 1.951 1.951 0 0 0 2.114-1.25 1.141 1.141 0 0 0 .063-.375H.406q-.025 0-.025-.032.508-.837.519-.837h2.445v-.013a1.512 1.512 0 0 0-.812-.749 2.275 2.275 0 0 0-.774-.159H.394v-.032q.495-.837.506-.837z" transform="translate(9 17)" style="fill:#09bc87"/>
    </g>
</svg>
