<svg xmlns="http://www.w3.org/2000/svg" width="18.992" height="16.752" viewBox="0 0 18.992 16.752">
    <g data-name="Group 4115">
        <path data-name="Subtraction 1" d="M7.008 14.015a7.008 7.008 0 1 1 6.754-8.862l-.95-.4a6.229 6.229 0 1 0-5.8 8.485 6.168 6.168 0 0 0 3.71-1.229l.6.525a6.934 6.934 0 0 1-4.314 1.481z" transform="rotate(-13 13.587 1.548)" style="fill:#6c7380"/>
        <path data-name="Path 6296" d="M9.994 5.393 6.3 8.767a.249.249 0 0 1-.418-.182V6.556a7.163 7.163 0 0 1-3.1-.9A5.776 5.776 0 0 1 0 .249a.249.249 0 1 1 .5 0C.5 1.378 1.82 3.7 5.883 3.854V1.87a.245.245 0 0 1 .147-.226.253.253 0 0 1 .269.042l3.69 3.339a.249.249 0 0 1 .082.184.227.227 0 0 1-.077.184z" transform="rotate(-25 19.451 -10.197)" style="fill:#6c7380"/>
    </g>
</svg>
