<svg xmlns="http://www.w3.org/2000/svg" width="17.673" height="16.752" viewBox="0 0 17.673 16.752">
    <g data-name="Group 4116">
        <path data-name="Subtraction 1" d="M7.008 14.015a7.008 7.008 0 1 1 6.754-8.862l-.95-.4a6.229 6.229 0 1 0-5.8 8.485 6.168 6.168 0 0 0 3.71-1.229l.6.525a6.934 6.934 0 0 1-4.314 1.481z" transform="rotate(-13 13.587 1.548)" style="fill:#6c7380"/>
        <path data-name="Path 6296" d="M9.993 3.44 6.3.066a.249.249 0 0 0-.418.182v2.028a7.162 7.162 0 0 0-3.1.9A5.776 5.776 0 0 0 0 8.584a.249.249 0 1 0 .5 0c0-1.129 1.323-3.451 5.385-3.6v1.979a.245.245 0 0 0 .147.226.253.253 0 0 0 .268-.042l3.69-3.339a.249.249 0 0 0 .082-.184.228.228 0 0 0-.077-.184z" transform="rotate(-179 8.815 6.245)" style="fill:#6c7380"/>
    </g>
</svg>
