<svg xmlns="http://www.w3.org/2000/svg" width="55.618" height="59.957" viewBox="0 0 55.618 59.957">
    <g data-name="Group 3506">
        <path data-name="Path 6042" d="m249.052 270.874-10.219-10.218a13.979 13.979 0 0 0 2.961-12.815.97.97 0 1 0-1.873.5 12.059 12.059 0 1 1-1.975-4.062l-2.088 1.327a2.136 2.136 0 0 0-3.172 2.332l-6.329 5.367a2.127 2.127 0 0 0-2.238.286l-4.581-1.932a.97.97 0 0 0-.753 1.788l4.548 1.916a2.14 2.14 0 0 0 4.278-.114 2.111 2.111 0 0 0-.043-.429l6.373-5.4a2.141 2.141 0 0 0 2.97-1.974c0-.066 0-.133-.01-.2l8.315-5.277a2.12 2.12 0 0 0 1.089.3 2.142 2.142 0 1 0-2.142-2.142c0 .066 0 .137.011.2l-4.587 2.911a13.979 13.979 0 0 0-25.248 7.347l-6.867 4.038a2.14 2.14 0 1 0 .989 1.8c0-.043 0-.086-.007-.129l5.922-3.477a13.97 13.97 0 0 0 23.086 9.208l10.218 10.218a.97.97 0 1 0 1.373-1.372z" transform="translate(-193.718 -212.573)" style="fill:#124094"/>
        <path data-name="Path 6043" d="M161.425 83.322a.97.97 0 0 0-.97.97v1.654h-37.562V34.02h37.562v19.334a.971.971 0 0 0 1.941 0V33.05a.97.97 0 0 0-.971-.97H156.2v-3.1a.97.97 0 0 0-.971-.97H117.2a.97.97 0 0 0-.971.97v54.452a.97.97 0 0 0 .971.97h3.749v2.514a.971.971 0 0 0 .971.97h39.5a.97.97 0 0 0 .971-.97v-2.624a.97.97 0 0 0-.971-.97zm-43.251-.858V29.946h36.091v2.132h-32.34a.969.969 0 0 0-.97.97v49.415z" transform="translate(-116.233 -28.005)" style="fill:#00aeef"/>
        <path data-name="Path 6044" d="M247.12 126.838a.97.97 0 0 0-.97-.97h-25.1a.97.97 0 1 0 0 1.94h25.1a.97.97 0 0 0 .97-.97z" transform="translate(-207.731 -114.226)" style="fill:#124094"/>
        <path data-name="Path 6045" d="M234.185 165.974a.97.97 0 0 0-.97-.97h-12.16a.97.97 0 0 0 0 1.94h12.16a.969.969 0 0 0 .97-.97z" transform="translate(-207.731 -148.706)" style="fill:#124094"/>
        <path data-name="Path 6046" d="M221.24 206.33a.971.971 0 0 0 0 1.941h6.6a.971.971 0 0 0 0-1.941z" transform="translate(-207.916 -185.116)" style="fill:#124094"/>
    </g>
</svg>
