<svg data-name="Component 125 – 2402" xmlns="http://www.w3.org/2000/svg" width="24" height="24" viewBox="0 0 24 24">
    <path d="M158.617 85.368a1.879 1.879 0 0 0-1.718-1.186l-4.083-.595-1.828-3.7a1.718 1.718 0 0 0-3.315 0l-1.829 3.7-4.084.595a1.719 1.719 0 0 0-1.025 3.155l2.955 2.88-.7 4.069a2.071 2.071 0 0 0 .348 1.765 1.827 1.827 0 0 0 2.336.182l3.654-1.919 3.655 1.921a2.562 2.562 0 0 0 1.181.329 1.483 1.483 0 0 0 1.155-.513 2.07 2.07 0 0 0 .346-1.766l-.7-4.069 2.955-2.88a1.877 1.877 0 0 0 .692-1.968z" transform="translate(-136.974 -75.621)" style="fill:#feae65"/>
</svg>
