<svg xmlns="http://www.w3.org/2000/svg" width="24" height="24" viewBox="0 0 24 24">
    <g data-name="Component 125 – 936" style="opacity:.2">
        <g data-name="Group 3640">
            <path data-name="Path 6168" d="M143.4 82.4a9 9 0 1 0-9-9 9.018 9.018 0 0 0 9 9zm0-16.831a7.831 7.831 0 1 1-7.83 7.831 7.831 7.831 0 0 1 7.83-7.831z" transform="translate(-131.398 -61.4)" style="fill:#6c7380"/>
            <path data-name="Path 6169" d="M247.926 216.926a.563.563 0 0 0 .421.164.547.547 0 0 0 .4-.164l4.838-4.605a.579.579 0 1 0-.795-.842l-4.441 4.231-2.361-2.384a.579.579 0 0 0-.818.818z" transform="translate(-237.375 -202.191)" style="fill:#6c7380"/>
        </g>
    </g>
</svg>
