<svg xmlns="http://www.w3.org/2000/svg" width="57.048" height="60.051" viewBox="0 0 57.048 60.051">
    <g data-name="Group 3540">
        <path data-name="Union 75" d="M88.936 23337.084a10 10 0 1 1 7.07 2.934 10.017 10.017 0 0 1-7.07-2.934zm1.412-12.734a8 8 0 1 0 5.658-2.35 8.007 8.007 0 0 0-5.659 2.35zm6.086 12.277-.076-.1c-1.183-1.57-2.091-2.76-2.683-3.551-.3-.4-.521-.7-.674-.895-.269-.363-.269-.363-.269-.451v-1.008l.105-.27.2.029a3.975 3.975 0 0 0 .7.053c1.224 0 1.962-.428 2.261-1.307a.781.781 0 0 0 .029-.111h-3.348a.279.279 0 0 1-.281-.287v-.07l.041-.059.451-.738c.193-.311.228-.369.375-.369H95.7a1.771 1.771 0 0 0-.6-.416 2.42 2.42 0 0 0-.82-.164h-1.865v-.357l.035-.059c.193-.332.34-.584.445-.748.187-.311.223-.369.369-.369h6.35v.334l-.029.059a6.219 6.219 0 0 1-.668 1.076l-.07.064H97.57a2.635 2.635 0 0 1 .217.58h1.563l.029.012a.275.275 0 0 1 .223.27v.07l-.035.059c-.621 1.049-.621 1.049-.7 1.09l-.053.023h-.966a3.9 3.9 0 0 1-.422 1.1l-.018.029a3.034 3.034 0 0 1-1.1 1.02 4.063 4.063 0 0 1-1.382.48c.047.059.105.141.176.234l3.058 4.193v.275a.276.276 0 0 1-.275.281z" transform="translate(-52.972 -23313.994)" style="fill:#124094"/>
        <path data-name="Path 6076" d="M170.8 33.513a13.985 13.985 0 0 0-18.425-13.288 14.8 14.8 0 0 0-8.6-2.726h-19.017a1 1 0 0 0-1 1 10.015 10.015 0 0 0 5.283 8.819 8.922 8.922 0 0 0-2.961 2.178l-10.991-3.931a1 1 0 0 0-1.078 1.616l9.746 10.719v14.629a1 1 0 0 0 1 1h8.007a1 1 0 0 0 1-1V48.94l1.709-1.709a1 1 0 0 0 .293-.708v-4.282l4-1.335v9.208l-9.715 9.715a1 1 0 0 0-.293.706v3h-1a1 1 0 0 0-1 1v3h-2a1 1 0 0 0-1 1v8.007a1 1 0 0 0 1 1h37.032a1 1 0 0 0 1-1v-7.999a1 1 0 0 0-1-1h-2v-3a1 1 0 0 0-1-1h-1V47.365a14.021 14.021 0 0 0 12.01-13.852zm-2 0a12.022 12.022 0 1 1-3.521-8.489 12.01 12.01 0 0 1 3.521 8.489zM125.821 19.5h17.953a12.842 12.842 0 0 1 6.372 1.676 14.113 14.113 0 0 0-5.493 5.354 16.296 16.296 0 0 0-.88-.025h-10.008a8.019 8.019 0 0 1-7.945-7.006zm-.955 11.688a8.906 8.906 0 0 0-1.087 3.763l-5.593-6.151zm36.923 44.36h-35.03v-6.004h35.03zm-32.027-8.007v-2h29.024v2zm27.023-4h-25.022V60.95l9.715-9.715a1 1 0 0 0 .293-.708V39.518a1 1 0 0 0-1.317-.95l-6.005 2a1 1 0 0 0-.685.95v4.59l-1.709 1.709a1 1 0 0 0-.293.708v3h-6.005v-16.01a7.006 7.006 0 0 1 7.006-7.006h10.948a13.978 13.978 0 0 0 13.072 19.016z" transform="translate(-113.749 -17.5)" style="fill:#00aeef"/>
        <path data-name="Path 6079" d="M239.253 167.251a1 1 0 0 1-1-1h-2a3 3 0 1 0 6.005 0h-2a1 1 0 0 1-1 1z" transform="translate(-222.238 -149.236)" style="fill:#00aeef"/>
    </g>
</svg>
