<svg xmlns="http://www.w3.org/2000/svg" width="12.88" height="12.791" viewBox="0 0 12.88 12.791">
    <path data-name="Union 93" d="m-3910.345 8305.6-2.47-2.47a.6.6 0 0 1 0-.863l2.47-2.47a.6.6 0 0 1 .865 0 .6.6 0 0 1 0 .865l-1.419 1.419h10.162a.582.582 0 0 1 .617.617.582.582 0 0 1-.617.617h-10.163l1.419 1.422a.593.593 0 0 1 0 .862.606.606 0 0 1-.432.187.612.612 0 0 1-.432-.186zm6.706-6.615a.594.594 0 0 1 0-.863l1.419-1.422h-10.162a.582.582 0 0 1-.617-.617.582.582 0 0 1 .617-.617h10.162l-1.419-1.419a.6.6 0 0 1 0-.865.6.6 0 0 1 .865 0l2.47 2.47a.6.6 0 0 1 0 .863l-2.47 2.471a.611.611 0 0 1-.433.186.605.605 0 0 1-.433-.183z" transform="translate(3913 -8293)" style="fill:#6c7380"/>
</svg>
